# Blender v2.72 (sub 0) OBJ File: 'Cubey_Mesh2.blend'
# www.blender.org
mtllib cornellbox2.mtl
o cornellbox.003
v 1.036649 -0.863151 1.726366
v 1.036649 1.199485 1.726367
v 1.036649 1.199485 -0.377730
v -0.248612 1.189120 0.472201
v -0.248612 1.189120 0.866071
v -1.057082 1.199485 1.726367
v 0.238543 1.189120 0.472201
v -1.057082 1.199485 -0.377730
v 1.036649 1.199485 -0.377730
v 1.036649 1.199485 1.726367
v 0.238543 1.189120 0.866071
v 1.036649 -0.863151 -0.377730
v -0.549197 0.380649 0.793516
v 0.041608 0.380649 0.606946
v -0.144962 0.380649 0.005776
v -0.549197 -0.863151 0.793516
v -0.549197 0.380649 0.793516
v -0.735767 0.380649 0.192346
v -0.735767 0.380649 0.192346
v -0.144962 0.380649 0.005776
v -0.144962 -0.863151 0.005775
v -0.144962 0.380649 0.005776
v 0.041608 0.380649 0.606946
v 0.041608 -0.863151 0.606946
v 0.041608 0.380649 0.606946
v -0.549197 0.380649 0.793516
v -0.549197 -0.863151 0.793516
v -0.735767 0.380649 0.192346
v -0.735767 -0.863151 0.192346
v -0.735767 -0.863151 0.192346
v -0.144962 -0.863151 0.005775
v 0.041608 -0.863151 0.606946
v -1.046717 -0.863151 1.726366
v 1.036649 -0.863151 1.726366
v 1.036649 -0.863151 -0.377730
v -1.025987 -0.863151 -0.377730
v 1.036649 -0.863151 -0.377730
v 1.036649 1.199485 -0.377730
v -1.057082 1.199485 -0.377730
v -1.025987 -0.863151 -0.377730
v -1.025987 -0.863151 -0.377730
v -1.057082 1.199485 -0.377730
v -1.057082 1.199485 1.726367
v -1.046717 -0.863151 1.726366
v 0.725699 -0.241251 0.876436
v 0.134893 -0.241251 0.700231
v -0.051677 -0.241251 1.291036
v -0.051677 -0.241251 1.291036
v 0.134893 -0.241251 0.700231
v 0.134893 -0.863151 0.700231
v 0.549494 -0.241251 1.477606
v -0.051677 -0.241251 1.291036
v -0.051677 -0.863151 1.291036
v 0.134893 -0.241251 0.700231
v 0.725699 -0.241251 0.876436
v 0.725699 -0.863151 0.876436
v 0.725699 -0.241251 0.876436
v 0.549494 -0.241251 1.477606
v 0.549494 -0.863151 1.477606
v 0.549494 -0.241251 1.477606
v -0.051677 -0.863151 1.291036
v 0.549494 -0.863151 1.477606
v 0.134893 -0.863151 0.700231
v 0.725699 -0.863151 0.876436
vt 1.000000 0.000000
vt 1.000000 1.000000
vt 0.000000 1.000000
vt 0.000000 0.000000
vn -1.000000 -0.000000 0.000000
vn -0.006500 -1.000000 -0.006000
vn -0.006500 -1.000000 0.005900
vn -0.006200 -1.000000 0.006300
vn 0.006600 -1.000000 -0.006000
vn -0.006200 -1.000000 -0.006300
vn 0.006200 -1.000000 -0.006300
vn 0.006200 -1.000000 0.006300
vn 0.006600 -1.000000 0.005900
vn -0.000000 1.000000 0.000000
vn -0.955100 -0.000000 0.296400
vn -0.301100 0.000000 -0.953600
vn 0.955100 0.000000 -0.296400
vn 0.301100 -0.000000 0.953600
vn 0.000000 -0.000000 1.000000
vn 0.999900 0.010100 0.004900
vn 0.999900 0.015100 0.000000
vn 0.999900 0.010000 0.005000
vn 0.999900 0.005000 0.009900
vn -0.953600 0.000000 -0.301100
vn -0.296400 -0.000000 0.955100
vn 0.285800 0.000000 -0.958300
vn 0.959600 -0.000000 0.281300
usemtl wood
s 1
f 1/1/1 2/2/1 3/3/1
