# Blender v2.58 (sub 1) OBJ File: ''
# www.blender.org
mtllib cubey.mtl
o Cube
v 1.000000 -1.000000 -1.000000
v 1.000000 -1.000000 1.000000
v -1.000000 -1.000000 1.000000
v -1.000000 -1.000000 -1.000000
v 1.000000 1.000000 -0.999999
v 0.999999 1.000000 1.000001
v -1.000000 1.000000 1.000000
v -1.000000 1.000000 -1.000000
v -0.470045 1.476449 0.470044
v -0.470044 1.476449 -0.470044
v 0.470044 1.476449 0.470045
v 0.470044 1.476449 -0.470044
v 0.905087 1.837384 0.905088
v 0.905088 1.837384 -0.905087
v -0.905088 1.837384 -0.905088
v -0.905088 1.837384 0.905087
v -0.697721 2.263788 0.697721
v -0.697721 2.263788 -0.697721
v 0.697720 2.263788 0.697721
v 0.697721 2.263788 -0.697721
v 0.284869 2.434677 0.284869
v 0.284869 2.434677 -0.284869
v -0.284869 2.434677 -0.284869
v -0.284869 2.434677 0.284869
v -0.963352 3.199494 -0.963352
v -0.963352 3.199494 0.963352
v 0.963351 3.199494 0.963353
v 0.963352 3.199494 -0.963351
vt 0.000000 0.000000
vt 0.000000 -1.000000
vt -1.000000 -1.000000
vt -1.000000 0.000000
vt -0.000000 1.000000
vt -1.000000 1.000000
vt 1.000000 1.000000
vt 1.000000 0.000000
vt 0.264978 -0.735022
vt 0.264978 -0.264978
vt 2.000000 -0.000000
vt 1.735022 0.264978
vt 1.264978 0.264978
vt -0.735022 0.735022
vt -0.264978 0.735022
vt 1.000000 2.000000
vt 0.735022 1.735022
vt 0.735022 1.264978
vt 0.735022 0.264978
vt 0.735022 0.735022
vt 0.952544 0.952544
vt 0.952543 0.047456
vt 0.264978 0.735022
vt 0.047456 0.952544
vt 0.264978 0.264978
vt 0.047456 0.047456
vt 0.952544 0.418692
vt 0.047456 0.418692
vt 0.151140 0.631894
vt 0.848861 0.631894
vt 0.952543 0.418692
vt 0.848860 0.631894
vt 0.151139 0.631894
vt 0.848860 0.151139
vt 0.848861 0.848860
vt 0.642434 0.642434
vt 0.642434 0.357565
vt 0.151140 0.848861
vt 0.357565 0.642434
vt 0.151139 0.151140
vt 0.357565 0.357565
vt 0.642434 0.717338
vt 0.357565 0.717338
vt 0.018324 1.099747
vt 0.981676 1.099747
vt 0.981676 0.981676
vt 0.018324 0.981676
vt 0.018324 0.018324
vt 0.981676 0.018324
vn 0.000000 -1.000000 0.000000
vn 1.000000 0.000000 0.000000
vn -0.000000 -0.000000 1.000000
vn -1.000000 -0.000000 -0.000000
vn 0.000000 0.000000 -1.000000
vn -0.668569 0.743650 -0.000000
vn -0.000000 0.743650 0.668569
vn 0.000000 0.743650 -0.668569
vn 0.668569 0.743650 0.000000
vn 0.638510 -0.769613 0.000000
vn 0.000000 -0.769613 -0.638510
vn -0.000000 -0.769613 0.638510
vn -0.638510 -0.769613 -0.000000
vn -0.899296 0.437341 -0.000000
vn -0.000000 0.437341 0.899296
vn 0.000000 0.437341 -0.899296
vn 0.899296 0.437341 0.000001
vn 0.382454 0.923975 0.000000
vn 0.000000 0.923975 -0.382454
vn -0.000000 0.923975 0.382454
vn -0.382454 0.923975 -0.000000
vn -0.748067 -0.663623 -0.000000
vn -0.000000 -0.663623 0.748067
vn 0.000000 -0.663623 -0.748067
vn 0.748067 -0.663623 0.000000
vn 0.000000 1.000000 0.000000
usemtl Material
s off
f 1/1/1 2/2/1 3/3/1
f 1/1/1 3/3/1 4/4/1
f 1/1/2 5/5/2 6/6/2
f 1/1/2 6/6/2 2/4/2
f 2/1/3 6/5/3 7/6/3
f 2/1/3 7/6/3 3/4/3
f 3/1/4 7/5/4 8/7/4
f 3/1/4 8/7/4 4/8/4
f 5/1/5 1/2/5 4/3/5
f 5/1/5 4/3/5 8/4/5
f 8/1/6 7/2/6 9/9/6
f 8/1/6 9/9/6 10/10/6
f 7/8/7 6/11/7 11/12/7
f 7/8/7 11/12/7 9/13/7
f 5/5/8 8/6/8 10/14/8
f 5/5/8 10/14/8 12/15/8
f 6/7/9 5/16/9 12/17/9
f 6/7/9 12/17/9 11/18/9
f 11/19/10 12/20/10 14/21/10
f 11/19/10 14/21/10 13/22/10
f 12/20/11 10/23/11 15/24/11
f 12/20/11 15/24/11 14/21/11
f 9/25/12 11/19/12 13/22/12
f 9/25/12 13/22/12 16/26/12
f 10/23/13 9/25/13 16/26/13
f 10/23/13 16/26/13 15/24/13
f 15/27/14 16/28/14 17/29/14
f 15/27/14 17/29/14 18/30/14
f 16/28/15 13/31/15 19/32/15
f 16/28/15 19/32/15 17/33/15
f 14/27/16 15/28/16 18/29/16
f 14/27/16 18/29/16 20/30/16
f 13/28/17 14/27/17 20/32/17
f 13/28/17 20/32/17 19/33/17
f 19/34/18 20/35/18 22/36/18
f 19/34/18 22/36/18 21/37/18
f 20/35/19 18/38/19 23/39/19
f 20/35/19 23/39/19 22/36/19
f 17/40/20 19/34/20 21/37/20
f 17/40/20 21/37/20 24/41/20
f 18/38/21 17/40/21 24/41/21
f 18/38/21 24/41/21 23/39/21
f 23/42/22 24/43/22 26/44/22
f 23/42/22 26/44/22 25/45/22
f 24/43/23 21/42/23 27/45/23
f 24/43/23 27/45/23 26/44/23
f 22/42/24 23/43/24 25/44/24
f 22/42/24 25/44/24 28/45/24
f 21/43/25 22/42/25 28/45/25
f 21/43/25 28/45/25 27/44/25
f 28/46/26 25/47/26 26/48/26
f 28/46/26 26/48/26 27/49/26
