# Blender v2.72 (sub 0) OBJ File: 'Cubey_Mesh.blend'
# www.blender.org
mtllib cubey.mtl
o Cube
v 1.823453 0.900666 -1.050066
v -1.441967 0.900666 -1.050066
v 1.385415 0.900666 -4.494432
v -1.003929 0.900666 -4.494432
v 3.179708 3.757172 -5.686561
v -2.798223 3.757172 -5.686561
v 1.425795 3.418868 -6.277911
v 0.897621 1.846355 -5.854506
v -0.194902 3.490834 -7.103735
v -0.581372 2.340209 -6.793927
v -1.055403 4.996522 -6.388905
v -2.022319 2.117758 -5.613787
v -3.104701 3.102952 -7.902496
v -1.545432 7.940036 -5.815709
v -0.499393 4.674100 -9.149638
v 0.123838 6.607452 -8.315560
v 2.042805 2.991049 -8.207818
v 2.894549 5.633287 -7.067919
vt 0.000000 0.000000
vt 1.000000 1.000000
vt 1.000000 0.000000
vt 0.000000 1.000000
vn 0.113600 0.941800 0.316300
vn 0.061200 0.556300 0.828700
vn 0.634000 -0.004800 0.773300
vn -0.463900 -0.220600 0.858000
vn -0.410200 0.363000 0.836600
vn -0.393500 -0.568100 0.722800
vn 0.595800 -0.472300 0.649600
vn -0.405300 -0.891100 0.204300
vn 0.000000 0.385100 0.922900
vn 0.821900 0.559900 0.104500
vn -0.821900 0.559900 0.104500
vn 0.000000 1.000000 -0.000000
vn 0.634100 -0.004800 0.773300
usemtl Material.006
s off
f 10/1/1 12/2/1 8/3/1
f 15/1/2 13/2/2 17/3/2
f 10/1/3 9/4/3 11/2/3
f 15/1/4 17/4/4 18/2/4
f 10/1/5 8/4/5 7/2/5
f 9/1/6 7/2/6 11/3/6
f 15/1/7 16/4/7 14/2/7
f 16/1/8 18/2/8 14/3/8
f 3/4/9 5/2/9 6/3/9
f 4/1/10 6/2/10 2/3/10
f 3/1/11 1/2/11 5/3/11
f 2/4/12 1/2/12 3/3/12
f 12/3/13 10/1/13 11/2/13
f 16/3/4 15/1/4 18/2/4
f 9/3/5 10/1/5 7/2/5
f 13/3/7 15/1/7 14/2/7
f 4/1/9 3/4/9 6/3/9
f 4/1/12 2/4/12 3/3/12
