# Blender v2.72 (sub 0) OBJ File: 'Cubey_Mesh.blend'
# www.blender.org
mtllib cubey.mtl
o Cube
v 1.823453 0.900666 -1.050066
v -1.441967 0.900666 -1.050066
v 1.385415 0.900666 -4.494432
v -1.003929 0.900666 -4.494432
v 3.179708 3.757172 -5.686561
v -2.798223 3.757172 -5.686561
v 1.425795 3.418868 -6.277911
v 0.897621 1.846355 -5.854506
v -0.194902 3.490834 -7.103735
v -0.581372 2.340209 -6.793927
v -1.055403 4.996522 -6.388905
v -2.022319 2.117758 -5.613787
v 1.307047 2.559966 -2.081006
v 1.239696 2.607629 -2.078122
v -0.466093 1.269526 -3.618272
v 0.098767 0.869787 -3.642464
v -0.837869 0.911784 -2.754424
v -0.065899 0.365476 -2.787486
v 1.195367 2.564973 -1.975120
v 1.287413 2.499834 -1.979063
vt 0.397227 0.623209
vt 0.190632 0.542376
vt 0.598400 0.525101
vt 0.342777 0.201627
vt 0.705909 0.413244
vt 0.712190 0.428276
vt 0.444313 0.783840
vt 0.312523 0.981312
vt 0.670020 0.754232
vt 0.473175 0.128752
vt 0.722820 0.402476
vt 0.681706 0.330259
vt 0.937308 0.789506
vt 0.057789 0.774028
vt 0.332874 0.323249
vt 0.207408 0.037170
vt 0.837717 0.050816
vt 0.496348 0.265899
vt 0.724465 0.420415
vt 0.406454 0.318577
vn 0.113600 0.941800 0.316300
vn -0.640000 0.767200 0.042300
vn 0.634000 -0.004800 0.773300
vn -0.410200 0.363000 0.836600
vn -0.393500 -0.568100 0.722800
vn -0.148000 -0.266800 0.952300
vn 0.000000 0.385100 0.922900
vn 0.821900 0.559900 0.104500
vn -0.821900 0.559900 0.104500
vn 0.000000 1.000000 -0.000000
vn 0.858800 -0.496300 -0.127300
vn 0.324200 0.506400 -0.799000
vn 0.634100 -0.004800 0.773300
usemtl Material.006
s off
f 10/1/1 12/2/1 8/3/1
f 17/4/2 19/5/2 14/6/2
f 10/1/3 9/7/3 11/8/3
f 10/1/4 8/3/4 7/9/4
f 9/7/5 7/9/5 11/8/5
f 17/4/6 18/10/6 20/11/6
f 3/12/7 5/13/7 6/14/7
f 4/15/8 6/14/8 2/16/8
f 3/12/9 1/17/9 5/13/9
f 2/16/10 1/17/10 3/12/10
f 18/10/11 16/18/11 13/19/11
f 15/20/12 14/6/12 13/19/12
f 15/20/2 17/4/2 14/6/2
f 12/2/13 10/1/13 11/8/13
f 9/7/4 10/1/4 7/9/4
f 19/5/6 17/4/6 20/11/6
f 4/15/7 3/12/7 6/14/7
f 4/15/10 2/16/10 3/12/10
f 20/11/11 18/10/11 13/19/11
f 16/18/12 15/20/12 13/19/12
