# Blender v2.72 (sub 0) OBJ File: 'Cubey_Mesh.blend'
# www.blender.org
v 0.821088 0.072936 2.224985
v -0.821892 0.072936 2.224985
v 0.600691 0.072936 0.491969
v -0.601496 0.072936 0.491969
v -0.054794 1.470790 1.272468
v -0.169066 1.470790 1.272468
v -0.111930 1.565334 1.272468
v 0.600691 2.668295 0.491969
v -0.601496 2.668295 0.491969
v 0.122546 0.190081 1.001684
v -0.346407 0.190081 1.001684
v -0.111930 0.578075 1.001684
v 0.347950 0.190081 1.397454
v -0.121002 0.190081 1.397454
v 0.113474 0.578075 1.397454
vt 0.089054 0.207757
vt 0.910544 0.207757
vt 0.800345 -0.658751
vt 0.444035 0.282667
vt 0.472603 0.235395
vt 0.415467 0.235395
vt 0.199252 0.536468
vt 0.800345 0.536468
vt 0.800345 1.834147
vt 0.536468 0.341249
vt 1.834147 0.341249
vt 0.536468 1.207757
vt 0.444035 0.789037
vt 0.326797 0.595040
vt 0.561273 0.595040
vt 0.556737 0.789037
vt 0.673975 0.595040
vt 0.439499 0.595040
vt 0.595040 0.596106
vt 0.595040 0.793991
vt 0.789037 0.793991
vt 0.789037 0.596106
vt 0.199252 0.341249
vt 0.089054 1.207757
vt 0.800345 0.341249
vt 0.199252 0.834147
vt 0.199252 -0.463532
vt 0.800345 0.834147
vn 0.000000 1.000000 0.000000
vn 0.000000 0.000000 -1.000000
vn 0.000000 0.000000 1.000000
vn 0.992000 0.000000 0.126200
vn -0.992000 0.000000 0.126200
vn -0.769300 -0.464900 0.438200
vn 0.769300 -0.464900 -0.438200
s off
f 2/1/1 1/2/1 3/3/1
f 7/4/2 5/5/2 6/6/2
f 4/7/3 3/8/3 8/9/3
f 4/10/4 9/11/4 2/12/4
f 3/10/5 1/12/5 8/11/5
f 12/13/3 11/14/3 10/15/3
f 15/16/2 13/17/2 14/18/2
f 10/19/6 13/20/6 15/21/6
f 12/22/7 15/21/7 14/20/7
f 4/23/1 2/24/1 3/25/1
f 9/26/3 4/27/3 8/28/3
f 12/22/6 10/19/6 15/21/6
f 11/19/7 12/22/7 14/20/7
