# Blender v2.72 (sub 0) OBJ File: 'Cubey_Mesh.blend'
# www.blender.org
mtllib cubey.mtl
o cornellbox.003
v 1.000000 0.000000 -0.845194
v 1.000000 1.990000 -0.845194
v 1.000000 1.990000 -2.875194
v -0.240000 1.980000 -2.055194
v -0.240000 1.980000 -1.675194
v -1.020000 1.990000 -0.845194
v 0.230000 1.980000 -2.055194
v -1.020000 1.990000 -2.875194
v 1.000000 1.990000 -2.875194
v 1.000000 1.990000 -0.845194
v 0.230000 1.980000 -1.675194
v 1.000000 0.000000 -2.875194
v -0.530000 1.200000 -1.745194
v 0.040000 1.200000 -1.925194
v -0.140000 1.200000 -2.505194
v -0.530000 0.000000 -1.745194
v -0.530000 1.200000 -1.745194
v -0.710000 1.200000 -2.325194
v -0.710000 1.200000 -2.325194
v -0.140000 1.200000 -2.505194
v -0.140000 0.000000 -2.505194
v -0.140000 1.200000 -2.505194
v 0.040000 1.200000 -1.925194
v 0.040000 0.000000 -1.925194
v 0.040000 1.200000 -1.925194
v -0.530000 1.200000 -1.745194
v -0.530000 0.000000 -1.745194
v -0.710000 1.200000 -2.325194
v -0.710000 0.000000 -2.325194
v -0.710000 0.000000 -2.325194
v -0.140000 0.000000 -2.505194
v 0.040000 0.000000 -1.925194
v -1.010000 0.000000 -0.845194
v 1.000000 0.000000 -0.845194
v 1.000000 0.000000 -2.875194
v -0.990000 0.000000 -2.875194
v 1.000000 0.000000 -2.875194
v 1.000000 1.990000 -2.875194
v -1.020000 1.990000 -2.875194
v -0.990000 0.000000 -2.875194
v -0.990000 0.000000 -2.875194
v -1.020000 1.990000 -2.875194
v -1.020000 1.990000 -0.845194
v -1.010000 0.000000 -0.845194
v 0.700000 0.600000 -1.665194
v 0.130000 0.600000 -1.835194
v -0.050000 0.600000 -1.265194
v -0.050000 0.600000 -1.265194
v 0.130000 0.600000 -1.835194
v 0.130000 0.000000 -1.835194
v 0.530000 0.600000 -1.085194
v -0.050000 0.600000 -1.265194
v -0.050000 0.000000 -1.265194
v 0.130000 0.600000 -1.835194
v 0.700000 0.600000 -1.665194
v 0.700000 0.000000 -1.665194
v 0.700000 0.600000 -1.665194
v 0.530000 0.600000 -1.085194
v 0.530000 0.000000 -1.085194
v 0.530000 0.600000 -1.085194
v -0.050000 0.000000 -1.265194
v 0.530000 0.000000 -1.085194
v 0.130000 0.000000 -1.835194
v 0.700000 0.000000 -1.665194
vt 1.000000 0.000000
vt 1.000000 1.000000
vt 0.000000 1.000000
vt 0.000000 0.000000
vn -1.000000 0.000000 0.000000
vn -0.006500 -1.000000 -0.006000
vn -0.006500 -1.000000 0.005900
vn -0.006200 -1.000000 0.006300
vn 0.006600 -1.000000 -0.006000
vn -0.006200 -1.000000 -0.006300
vn 0.006200 -1.000000 -0.006300
vn 0.006200 -1.000000 0.006300
vn 0.006600 -1.000000 0.005900
vn -0.000000 1.000000 0.000000
vn -0.955100 -0.000000 0.296400
vn -0.301100 0.000000 -0.953600
vn 0.955100 0.000000 -0.296400
vn 0.301100 -0.000000 0.953600
vn 0.000000 -0.000000 1.000000
vn 0.999900 0.010100 0.004900
vn 0.999900 0.015100 0.000000
vn 0.999900 0.010000 0.005000
vn 0.999900 0.005000 0.009900
vn -0.953600 0.000000 -0.301100
vn -0.296400 -0.000000 0.955100
vn 0.285800 0.000000 -0.958300
vn 0.959600 -0.000000 0.281300
usemtl None
s 1
f 1/1/1 2/2/1 3/3/1
f 4/4/2 5/1/3 6/2/4
f 7/4/5 4/1/2 8/2/6
f 7/1/5 9/2/7 10/3/8
f 11/4/9 10/1/8 6/2/4
f 12/4/1 1/1/1 3/3/1
f 8/3/6 4/4/2 6/2/4
f 9/3/7 7/4/5 8/2/6
f 11/4/9 7/1/5 10/3/8
f 5/3/3 11/4/9 6/2/4
f 13/4/10 14/1/10 15/2/10
f 16/4/11 17/1/11 18/2/11
f 19/1/12 20/2/12 21/3/12
f 22/1/13 23/2/13 24/3/13
f 25/1/14 26/2/14 27/3/14
f 28/3/10 13/4/10 15/2/10
f 29/3/11 16/4/11 18/2/11
f 30/4/12 19/1/12 21/3/12
f 31/4/13 22/1/13 24/3/13
f 32/4/14 25/1/14 27/3/14
f 33/4/10 34/1/10 35/2/10
f 36/3/10 33/4/10 35/2/10
f 37/1/15 38/2/15 39/3/15
f 40/4/15 37/1/15 39/3/15
f 41/1/16 42/2/17 43/3/18
f 44/4/19 41/1/16 43/3/18
f 45/1/10 46/2/10 47/3/10
f 48/1/20 49/2/20 50/3/20
f 51/1/21 52/2/21 53/3/21
f 54/1/22 55/2/22 56/3/22
f 57/1/23 58/2/23 59/3/23
f 60/4/10 45/1/10 47/3/10
f 61/4/20 48/1/20 50/3/20
f 62/4/21 51/1/21 53/3/21
f 63/4/22 54/1/22 56/3/22
f 64/4/23 57/1/23 59/3/23
